<svg width="48" height="32" viewBox="0 0 48 32" fill="none" xmlns="http://www.w3.org/2000/svg">
<rect x="0.5" y="0.5" width="47" height="31" rx="7.5" fill="white"/>
<path fill-rule="evenodd" clip-rule="evenodd" d="M9.17477 11.2L4.7998 20.8816H10.0372L10.6865 19.3379H12.1707L12.82 20.8816H18.5849V19.7034L19.0986 20.8816H22.0807L22.5944 19.6785V20.8816H34.5839L36.0418 19.378L37.4069 20.8816L43.565 20.8941L39.1762 16.0678L43.565 11.2H37.5024L36.0833 12.6757L34.7611 11.2H21.7181L20.5981 13.6989L19.4518 11.2H14.2253V12.338L13.6439 11.2H9.17477ZM27.0787 12.5748H33.9637L36.0694 14.8494L38.2431 12.5748H40.3489L37.1494 16.0664L40.3489 19.5179H38.1476L36.0418 17.2168L33.8571 19.5179H27.0787V12.5748ZM28.7789 15.2814V14.012H33.0749L34.9494 16.0402L32.9918 18.0794H28.7789V16.6949H32.5349V15.2814H28.7789ZM10.1882 12.5748H12.7412L15.6431 19.1399V12.5748H18.4398L20.6811 17.282L22.7468 12.5748H25.5296V19.522H23.8363L23.8225 14.0782L21.354 19.522H19.8393L17.357 14.0782V19.522H13.8736L13.2132 17.9645H9.64549L8.98648 19.5206H7.12015L10.1882 12.5748ZM10.2547 16.5247L11.4301 13.7502L12.6042 16.5247H10.2547Z" fill="#1F72CD"/>
<rect x="0.5" y="0.5" width="47" height="31" rx="7.5" stroke="#CCCCCC"/>
</svg>
