<svg width="48" height="32" viewBox="0 0 48 32" fill="none" xmlns="http://www.w3.org/2000/svg">
<g clip-path="url(#clip0_336_370)">
<rect width="48" height="32" rx="8" fill="white"/>
<path d="M21.6001 32.082L47.9861 24.4C47.9861 28.6427 44.5468 32.082 40.3041 32.082H21.6001Z" fill="#FD6020"/>
<path fill-rule="evenodd" clip-rule="evenodd" d="M41.0538 12.9482C42.5054 12.9482 43.3038 13.5942 43.3038 14.8144C43.3764 15.7475 42.7232 16.5371 41.8522 16.6807L43.8119 19.3365H42.2877L40.6183 16.7525H40.4731V19.3365H39.2392V12.9482H41.0538ZM40.4731 15.8911H40.836C41.6344 15.8911 41.9973 15.5322 41.9973 14.8862C41.9973 14.3119 41.6344 13.9531 40.836 13.9531H40.4731V15.8911ZM34.9569 19.3365H38.4408V18.2598H36.1908V16.5371H38.3683V15.4604H36.1908V14.0248H38.4408V12.9481H34.9569V19.3365ZM31.3278 17.2549L29.6584 12.9481H28.3519L31.0375 19.4801H31.6907L34.3762 12.9481H33.0698L31.3278 17.2549ZM16.5937 16.1782C16.5937 17.9727 18.0453 19.4801 19.8599 19.4801C20.4405 19.4801 20.9486 19.3365 21.4567 19.1212V17.6856C21.0938 18.1162 20.5857 18.4034 20.005 18.4034C18.8437 18.4034 17.9001 17.542 17.9001 16.3935V16.25C17.8276 15.1015 18.7711 14.0966 19.9324 14.0248C20.5131 14.0248 21.0938 14.312 21.4567 14.7426V13.307C21.0212 13.0199 20.4405 12.9481 19.9324 12.9481C18.0453 12.8046 16.5937 14.312 16.5937 16.1782ZM14.3436 15.3886C13.6178 15.1015 13.4001 14.958 13.4001 14.5991C13.4726 14.1684 13.8356 13.8095 14.271 13.8813C14.634 13.8813 14.9969 14.0966 15.2872 14.3837L15.9404 13.5224C15.4324 13.0917 14.7791 12.8046 14.1259 12.8046C13.1097 12.7328 12.2388 13.5224 12.1662 14.5273V14.5991C12.1662 15.4604 12.5291 15.9629 13.6904 16.3218C13.9807 16.3935 14.271 16.5371 14.5614 16.6807C14.7791 16.8242 14.9243 17.0396 14.9243 17.3267C14.9243 17.8291 14.4888 18.2598 14.0533 18.2598H13.9807C13.4001 18.2598 12.892 17.9009 12.6742 17.3985L11.8758 18.188C12.3113 18.9776 13.1823 19.4083 14.0533 19.4083C15.2146 19.4801 16.1582 18.6187 16.2308 17.4702V17.2549C16.1582 16.3935 15.7953 15.9629 14.3436 15.3886ZM10.1339 19.3365H11.3678V12.9481H10.1339V19.3365ZM4.3999 12.9482H6.57736C8.31933 13.0199 9.69838 14.4555 9.6258 16.1782C9.6258 17.1113 9.19031 17.9727 8.46449 18.6187C7.81125 19.1212 7.01285 19.4083 6.21445 19.3365H4.3999V12.9482ZM5.99669 18.2598C6.57735 18.3316 7.23059 18.1163 7.66608 17.7574C8.10157 17.3267 8.31932 16.7525 8.31932 16.1064C8.31932 15.5322 8.10157 14.958 7.66608 14.5273C7.23059 14.1684 6.57735 13.9531 5.99669 14.0248H5.63378V18.2598H5.99669Z" fill="black"/>
<path fill-rule="evenodd" clip-rule="evenodd" d="M25.1583 12.8C23.3438 12.8 21.8196 14.2356 21.8196 16.1019C21.8196 17.8964 23.2712 19.4037 25.1583 19.4755C27.0455 19.5473 28.4971 18.0399 28.5697 16.1737C28.4971 14.3074 27.0455 12.8 25.1583 12.8Z" fill="#FD6020"/>
</g>
<rect x="0.5" y="0.5" width="47" height="31" rx="7.5" stroke="#CCCCCC"/>
<defs>
<clipPath id="clip0_336_370">
<rect width="48" height="32" rx="8" fill="white"/>
</clipPath>
</defs>
</svg>
