<svg width="48" height="32" viewBox="0 0 48 32" fill="none" xmlns="http://www.w3.org/2000/svg">
<rect x="0.5" y="0.5" width="47" height="31" rx="7.5" fill="white"/>
<path fill-rule="evenodd" clip-rule="evenodd" d="M22.6045 19.9577V15.9217H24.6875C25.5411 15.9217 26.2615 15.6356 26.8489 15.0716L26.9898 14.9285C28.0627 13.7607 27.9922 11.9413 26.8489 10.8608C26.2772 10.2887 25.4941 9.97889 24.6875 9.99478H21.3437V19.9577H22.6045ZM22.6046 14.6981V11.2183H24.7193C25.1736 11.2183 25.6044 11.3931 25.9255 11.7109C26.6069 12.3782 26.6226 13.4905 25.9646 14.1817C25.6435 14.5233 25.1892 14.714 24.7193 14.6981H22.6046Z" fill="#3C4043"/>
<path fill-rule="evenodd" clip-rule="evenodd" d="M32.871 13.6733C32.3306 13.1727 31.5945 12.9185 30.6626 12.9185C29.4645 12.9185 28.5639 13.3634 27.9687 14.2453L29.0808 14.9524C29.488 14.3486 30.044 14.0467 30.7488 14.0467C31.1951 14.0467 31.6258 14.2135 31.9626 14.5154C32.2915 14.8014 32.4794 15.2146 32.4794 15.6515V15.9455C31.9939 15.6754 31.3831 15.5324 30.6313 15.5324C29.7542 15.5324 29.0494 15.7389 28.5247 16.16C28.0001 16.5811 27.7338 17.1372 27.7338 17.8443C27.7181 18.4879 27.9922 19.0996 28.4778 19.5127C28.9711 19.9577 29.5976 20.1801 30.3337 20.1801C31.203 20.1801 31.8921 19.7908 32.4168 19.0122H32.4716V19.9577H33.6776V15.7548C33.6776 14.8729 33.4113 14.1738 32.871 13.6733ZM29.449 18.7024C29.1906 18.5117 29.0339 18.2018 29.0339 17.8682C29.0339 17.4947 29.2062 17.1849 29.543 16.9386C29.8876 16.6923 30.3184 16.5652 30.8275 16.5652C31.5324 16.5572 32.0807 16.7161 32.4723 17.0339C32.4723 17.5742 32.2608 18.0429 31.8457 18.4402C31.4698 18.8215 30.9607 19.036 30.4281 19.036C30.0756 19.044 29.731 18.9248 29.449 18.7024Z" fill="#3C4043"/>
<path d="M36.3871 22.9529L40.6002 13.141H39.2298L37.2799 18.035H37.2564L35.2595 13.141H33.889L36.6534 19.5207L35.0872 22.9529H36.3871Z" fill="#3C4043"/>
<path d="M18.2517 15.0477C18.2517 14.6584 18.2204 14.2691 18.1577 13.8878H12.8405V16.0885H15.8867C15.7614 16.7956 15.3542 17.4312 14.7591 17.8284V19.2585H16.5759C17.6409 18.2654 18.2517 16.7956 18.2517 15.0477Z" fill="#4285F4"/>
<path d="M12.8407 20.6409C14.3599 20.6409 15.644 20.1324 16.5759 19.2585L14.7591 17.8284C14.25 18.178 13.6003 18.3766 12.8407 18.3766C11.3684 18.3766 10.1233 17.3676 9.67694 16.017H7.80533V17.4947C8.76071 19.4253 10.7106 20.6409 12.8407 20.6409Z" fill="#34A853"/>
<path d="M9.67694 16.017C9.44198 15.3099 9.44219 14.5393 9.67716 13.8242V12.3544H7.80524C6.99851 13.9672 6.99851 15.874 7.80524 17.4868L9.67694 16.017Z" fill="#FBBC04"/>
<path d="M12.8407 11.4646C13.6473 11.4487 14.4226 11.7585 15.0021 12.3226L16.6152 10.686C15.5894 9.71671 14.2424 9.18441 12.8407 9.2003C10.7106 9.2003 8.76063 10.4238 7.80524 12.3544L9.67694 13.8322C10.1233 12.4736 11.3684 11.4646 12.8407 11.4646Z" fill="#EA4335"/>
<rect x="0.5" y="0.5" width="47" height="31" rx="7.5" stroke="#CCCCCC"/>
</svg>
