<svg width="48" height="32" viewBox="0 0 48 32" fill="none" xmlns="http://www.w3.org/2000/svg">
<rect x="0.5" y="0.5" width="47" height="31" rx="7.5" fill="white"/>
<path fill-rule="evenodd" clip-rule="evenodd" d="M31.3192 10.9837C31.2998 11.1093 31.2773 11.2378 31.2522 11.3698C30.3871 15.8295 27.4274 17.3701 23.6474 17.3701H21.7227C21.2604 17.3701 20.8707 17.7071 20.7989 18.165L19.5343 26.2184C19.4875 26.5191 19.7183 26.79 20.0204 26.79H23.434C23.8382 26.79 24.1816 26.4951 24.2452 26.0949L24.2787 25.9208L24.9215 21.8255L24.9628 21.6009C25.0257 21.1993 25.3699 20.9042 25.774 20.9042H26.2845C29.5918 20.9042 32.1809 19.5561 32.9377 15.6546C33.2537 14.0249 33.0901 12.664 32.2536 11.7069C32.0005 11.4183 31.6865 11.1788 31.3192 10.9837Z" fill="#298FC2"/>
<path fill-rule="evenodd" clip-rule="evenodd" d="M30.4139 10.6214C30.2816 10.5827 30.1453 10.5477 30.0054 10.516C29.8648 10.4851 29.7208 10.4578 29.5725 10.4338C29.0536 10.3496 28.4849 10.3097 27.8759 10.3097H22.7342C22.6075 10.3097 22.4872 10.3384 22.3796 10.3903C22.1424 10.5048 21.9663 10.7302 21.9236 11.0061L20.8297 17.9622L20.7984 18.165C20.8703 17.7071 21.2599 17.3702 21.7222 17.3702H23.6469C27.4269 17.3702 30.3866 15.8288 31.2517 11.3698C31.2776 11.2378 31.2993 11.1094 31.3187 10.9837C31.0999 10.8671 30.8629 10.7674 30.6076 10.6824C30.5445 10.6613 30.4795 10.6411 30.4139 10.6214Z" fill="#22284F"/>
<path fill-rule="evenodd" clip-rule="evenodd" d="M21.9236 11.0061C21.9663 10.7302 22.1427 10.5048 22.3799 10.3911C22.4882 10.339 22.6077 10.3103 22.7345 10.3103H27.8761C28.4851 10.3103 29.0538 10.3504 29.5728 10.4346C29.7211 10.4584 29.865 10.4859 30.0057 10.5168C30.1456 10.5483 30.2819 10.5835 30.4141 10.622C30.4798 10.6417 30.5448 10.6622 30.6085 10.6824C30.8637 10.7674 31.1009 10.8679 31.3197 10.9837C31.5772 9.33568 31.3176 8.21357 30.4302 7.19748C29.4517 6.07872 27.6859 5.59998 25.4262 5.59998H18.8661C18.4046 5.59998 18.0108 5.9369 17.9395 6.39558L15.2072 23.7854C15.1533 24.1294 15.4176 24.4398 15.7631 24.4398H19.8131L21.9236 11.0061Z" fill="#28356A"/>
<rect x="0.5" y="0.5" width="47" height="31" rx="7.5" stroke="#CCCCCC"/>
</svg>
